<svg xmlns="http://www.w3.org/2000/svg" aria-hidden="true" style="position:absolute;width:0;height:0;overflow:hidden">
  <defs>
    <symbol id="icon-telegram" viewBox="0 0 32 32">
      <path fill="#40b3e0" d="M16 0a16 16 0 1 0 0 32 16 16 0 1 0 0-32" style="fill:var(--color1, #40b3e0)"/>
      <path fill="#fff" d="m23.8 9.2-2.9 14.4s-.4 1-1.5.5l-6.6-5-2.4-1.2-4-1.3s-.6-.3-.7-.7.7-.8.7-.8l16-6.3s1.4-.6 1.4.4" style="fill:var(--color2, #fff)"/>
      <path fill="#d2e5f1" d="M12.3 23.5s-.2 0-.4-.8l-1.5-4.8 9.7-6.1s.6-.4.6 0l-.2.3-7.6 6.9z" style="fill:var(--color3, #d2e5f1)"/>
      <path fill="#b5cfe4" d="m15.4 21-2.6 2.4h-.5l.5-4.4z" style="fill:var(--color4, #b5cfe4)"/>
    </symbol>
    <symbol id="icon-linkedin" viewBox="0 0 32 32">
      <path fill="#0077b7" d="M29.1 0H3A3 3 0 0 0 0 2.9V29C0 30.7 1.3 32 2.9 32H29c1.6 0 2.9-1.3 2.9-2.9V3C32 1.3 30.7 0 29.1 0M10 27.6q-.1.8-.8.9H5.5a1 1 0 0 1-.9-.9v-15q0-.8.9-.8H9q.7 0 .8.8zM7.3 10.3a3.4 3.4 0 1 1 0-6.8 3.4 3.4 0 0 1 0 6.8m21.3 17.4q0 .7-.7.8H24a1 1 0 0 1-.8-.8v-7c0-1.1.4-4.7-2.7-4.7-2.4 0-2.9 2.5-3 3.6v8.1q0 .7-.7.8H13a1 1 0 0 1-.7-.8V12.5q0-.7.7-.7h3.8q.6 0 .7.7v1.3c1-1.3 2.2-2.3 5-2.3 6.2 0 6.1 5.8 6.1 9z" style="fill:var(--color5, #0077b7)"/>
    </symbol>
    <symbol id="icon-github" viewBox="0 0 32 32">
      <path d="M15.7.6h.2q4.3 0 7.8 2.2 3.6 2.1 5.6 5.6 2.1 3.5 2.2 8c0 6.9-4.5 12.8-10.7 14.9h-.3l-.6-.1-.3-.6v-4.7q0-1.5-1-2.6 1.2 0 2.2-.4h-.1q1-.2 2-.8.9-.4 1.6-1.3t1-2.1q.5-1.5.5-3v-.2a6 6 0 0 0-1.6-4.2 5 5 0 0 0-.2-4.2 3 3 0 0 0-1.7.3l-1.9 1v-.1l-.7.5a15 15 0 0 0-8 0h.1l-.9-.6-1.6-.7a3 3 0 0 0-1.8-.3 5 5 0 0 0-.2 4.2 6 6 0 0 0-1.6 4v.3q0 1.5.4 3 .4 1.2 1.1 2.1l1.6 1.4q.8.5 2 .8 1 .2 2 .3-.7.9-1 2.1l-.8.3-1.1.2h-.1q-.8 0-1.4-.5t-1-1.2-1-1.1l-1-.5H4.2q-.2.1-.1.2 0 .2.2.3l.2.3h.2l.9.8.6 1v.1l.2.5q.3.8 1 1.2.5.5 1.3.6l1.4.2h1.2l.4-.2v2.9q0 .4-.2.7l-.8.1A15.8 15.8 0 0 1 2.2 8.4q2-3.6 5.6-5.6Q11.4.5 15.7.5zM6 23.3q0-.2-.2-.3h-.2q-.1.2.1.3zm.6.6v-.3q-.2-.2-.4 0v.3q.3.2.4 0m.6 1q.2-.2 0-.4-.1-.3-.3-.1-.2 0 0 .3t.3.2m.9.8q.1-.1-.1-.4-.3-.2-.4 0-.2.1 0 .4.3.2.5 0m1.1.5q.1-.2-.2-.3t-.4.2.3.3.3-.2m1.3.1q0-.2-.3-.2t-.3.2.3.3.3-.3m1.2-.2q0-.2-.3-.1-.4 0-.3.3t.3.1.3-.3"/>
    </symbol>
  </defs>
</svg>